# xmcd CD database file
#
# Track frame offsets:
#	150
#	15790
#	29777
#	49102
#	63385
#	81282
#	95822
#	113670
#	135642
#	154577
#	172105
#	189162
#	203565
#	217795
#	235390
#	253997
#
# Disc length: 3656 seconds
#
# Revision: 2
# Processed by: cddbd v1.5.2PL0 Copyright (c) Steve Scherf et al.
# Submitted via: CDex 1.85
#
DISCID=d60e4610
DTITLE=Engelbert and Audrey Landers - In Liebe Engelbert and Audrey Landers
DYEAR=1986
DGENRE=Country
TTITLE0=Engelbert - Please Release Me
TTITLE1=Engelbert - The Last Waltz
TTITLE2=Engelbert - What Are You Waiting For
TTITLE3=Engelbert - Dream of Me
TTITLE4=Engelbert - Then You Walked Into My Life
TTITLE5=Engelbert - The Spanish Night Is Over
TTITLE6=Engelbert - Love Life
TTITLE7=Engelbert - The Power Of Love
TTITLE8=Audrey Landers - Manuel Goodbye
TTITLE9=Audrey Landers - Jim, Jeff and Johnny
TTITLE10=Audrey Landers - Chinatown Is In New York
TTITLE11=Audrey Landers - Paradise Generation
TTITLE12=Audrey Landers - These Silver Wings
TTITLE13=Audrey Landers - Hey Sam
TTITLE14=Audrey Landers - Summernight In Rome
TTITLE15=Audrey Landers - Ready For Love
EXTD=YEAR: 1986
EXTT0=
EXTT1=
EXTT2=
EXTT3=
EXTT4=
EXTT5=
EXTT6=
EXTT7=
EXTT8=
EXTT9=
EXTT10=
EXTT11=
EXTT12=
EXTT13=
EXTT14=
EXTT15=
PLAYORDER=
